<svg width="281" height="362" viewBox="0 0 281 362" fill="none" xmlns="http://www.w3.org/2000/svg">
<path fill-rule="evenodd" clip-rule="evenodd" d="M202.264 186.485C179.438 189.683 157.452 185.671 138.698 171.837L149.511 159.516C165.232 171.112 181.165 174.153 200.299 171.473C219.433 168.793 236.86 158.67 249.033 143.166C261.206 127.662 267.209 107.942 265.821 88.0207C264.433 68.0993 255.757 49.4739 241.56 35.9363C227.364 22.3986 208.713 14.9664 189.405 15.1527C170.097 15.3389 151.584 23.1296 137.633 36.9388C123.683 50.7479 115.345 69.5374 114.316 89.4822C113.287 109.427 116.494 126.968 128.944 142.234L119.114 152.065C118.982 151.903 118.851 151.741 118.721 151.579L-56 361.243V315.606L117.836 150.461C103.929 132.602 98.4998 111.773 99.6915 88.6749C100.919 64.882 110.866 42.4672 127.508 25.9936C144.15 9.52013 166.235 0.226291 189.268 0.00410748C212.302 -0.218078 234.551 8.6481 251.487 24.7977C268.423 40.9473 278.772 63.1663 280.428 86.9315C282.085 110.697 274.923 134.221 260.401 152.717C245.88 171.212 225.09 183.288 202.264 186.485Z" fill="#43927C"/>
</svg>
